<svg version="1.1" id="Icons" xmlns="http://www.w3.org/2000/svg" xmlns:xlink="http://www.w3.org/1999/xlink" viewBox="-3.2 -3.2 38.40 38.40" xml:space="preserve" width="181px" height="181px" fill="#ba0909"><g id="SVGRepo_bgCarrier" stroke-width="0" transform="translate(0,0), scale(1)"><rect x="-3.2" y="-3.2" width="38.40" height="38.40" rx="8.064" fill="#000000" strokewidth="0"></rect></g><g id="SVGRepo_tracerCarrier" stroke-linecap="round" stroke-linejoin="round" stroke="#ffff00" stroke-width="0.192"> <style type="text/css"> .st0{fill:none;stroke:#000000;stroke-width:2;stroke-linecap:round;stroke-linejoin:round;stroke-miterlimit:10;} </style> <g> <polygon points="27.1,21 25.3,18 6.7,18 4.9,21 "></polygon> <polygon points="24.2,16 22.4,13 9.6,13 7.8,16 "></polygon> <path d="M21.2,11l-4.4-7.5c-0.4-0.6-1.4-0.6-1.7,0L10.8,11H21.2z"></path> <path d="M30.9,27.5L28.2,23H3.8l-2.6,4.5c-0.2,0.3-0.2,0.7,0,1S1.6,29,2,29h28c0.4,0,0.7-0.2,0.9-0.5S31,27.8,30.9,27.5z"></path> </g> </g><g id="SVGRepo_iconCarrier"> <style type="text/css"> .st0{fill:none;stroke:#000000;stroke-width:2;stroke-linecap:round;stroke-linejoin:round;stroke-miterlimit:10;} </style> <g> <polygon points="27.1,21 25.3,18 6.7,18 4.9,21 "></polygon> <polygon points="24.2,16 22.4,13 9.6,13 7.8,16 "></polygon> <path d="M21.2,11l-4.4-7.5c-0.4-0.6-1.4-0.6-1.7,0L10.8,11H21.2z"></path> <path d="M30.9,27.5L28.2,23H3.8l-2.6,4.5c-0.2,0.3-0.2,0.7,0,1S1.6,29,2,29h28c0.4,0,0.7-0.2,0.9-0.5S31,27.8,30.9,27.5z"></path> </g> </g></svg>
